<?xml version="1.0"?>
<svg xmlns="http://www.w3.org/2000/svg" width="56.557" height="60.485" viewBox="0 0 56.557 60.485">
    <defs>
        <style>
            .prefix__cls-1{fill:#ff4521}
        </style>
    </defs>
    <g id="prefix__Group_37011" data-name="Group 37011" transform="translate(-791.11 -971.236)">
        <path id="prefix__Path_86851" d="M803.9 992.576a1.14 1.14 0 0 0-1.726 1.49l10.683 12.377a1.139 1.139 0 0 0 .863.394h.083a1.135 1.135 0 0 0 .879-.527l21.12-33.323a1.14 1.14 0 1 0-1.925-1.22l-20.3 32.025z" class="prefix__cls-1" data-name="Path 86851" transform="translate(2.024)"/>
        <path id="prefix__Path_86852" d="M847.334 1023.907l-13.134-13.138a23.392 23.392 0 0 0 1.6-22.716 1.14 1.14 0 1 0-2.064.968 20.974 20.974 0 0 1 1.986 8.979 21.166 21.166 0 1 1-21.164-21.164 20.949 20.949 0 0 1 9.381 2.186 1.14 1.14 0 1 0 1.012-2.043 23.215 23.215 0 0 0-10.393-2.424 23.446 23.446 0 1 0 12.786 43.071l13.135 13.133a1.137 1.137 0 0 0 1.612 0l5.244-5.242a1.141 1.141 0 0 0 0-1.613zm-6.05 4.437l-11.835-11.836 3.69-3.572 11.777 11.777z" class="prefix__cls-1" data-name="Path 86852" transform="translate(0 .623)"/>
        <path id="prefix__Path_86853" d="M813.8 1009.48a15.018 15.018 0 0 1-15-15 1.14 1.14 0 0 0-2.28 0 17.3 17.3 0 0 0 17.28 17.28 1.14 1.14 0 1 0 0-2.28z" class="prefix__cls-1" data-name="Path 86853" transform="translate(1.016 4.148)"/>
    </g>
</svg>
