<?xml version="1.0"?>
<svg xmlns="http://www.w3.org/2000/svg" width="52.95" height="78.743" viewBox="0 0 52.95 78.743">
    <defs>
        <style>
            .cls-1{fill:#ff4521}
        </style>
    </defs>
    <g id="Group_35432" data-name="Group 35432" transform="translate(-1052 -814.246)">
        <g id="Group_35430" data-name="Group 35430" transform="translate(735.044 552.739)">
            <path id="Path_86329" d="M369.906 261.507H329.2a12.983 12.983 0 0 0-8.958 3.427 9.617 9.617 0 0 0-3.283 6.654c0 .065.005.128.008.192v66.983a1.486 1.486 0 0 0 1.486 1.486H367.7a1.486 1.486 0 0 0 1.486-1.486v-64.3a1.486 1.486 0 0 0-1.486-1.486h-46.37a1.448 1.448 0 0 1-1.09-.344 1.4 1.4 0 0 1-.3-.849v-.284-.044c.112-2.51 3.287-6.973 9.264-6.973h40.51m-49.773 11.29a5.225 5.225 0 0 0 1.392.178h44.884v61.332h-46.282z" class="cls-1" data-name="Path 86329"/>
            <path id="Path_86330" d="M375.606 296.327a1.486 1.486 0 1 0 0 2.971h39.714a1.486 1.486 0 0 0 0-2.971z" class="cls-1" data-name="Path 86330" transform="translate(-47.727 -29.072)"/>
        </g>
        <g id="Group_35431" data-name="Group 35431" transform="translate(505.963 711.854)">
            <path id="Path_86332" d="M579.677 140.8l.005.005 3.592 3.609 3.569-3.589a3.933 3.933 0 0 0 .626-.818 3.393 3.393 0 0 0 .414-1.2 10.745 10.745 0 0 0-7.165-2.725 10.876 10.876 0 0 0-2.154.215v1.834a3.621 3.621 0 0 0 .421 1.753 3.867 3.867 0 0 0 .692.916z" class="cls-1" data-name="Path 86332" transform="translate(-7.955)"/>
            <path id="Path_86333" d="M595.249 144.873a5.6 5.6 0 0 1-.516.885 6.23 6.23 0 0 1-.66.784l-3.587 3.573 3.608 3.594a6.107 6.107 0 0 1 .638.764 5.605 5.605 0 0 1 .939 2.189 10.786 10.786 0 0 0-.418-11.793z" class="cls-1" data-name="Path 86333" transform="translate(-13.67 -4.214)"/>
            <path id="Path_86334" d="M570.2 143.15a6.132 6.132 0 0 1-.769-.933 5.752 5.752 0 0 1-.954-3.257v-1.168a10.789 10.789 0 0 0 0 19.8v-3.077a5.718 5.718 0 0 1 .971-3.274 6.015 6.015 0 0 1 .755-.91l3.588-3.606z" class="cls-1" data-name="Path 86334" transform="translate(0 -.818)"/>
            <path id="Path_86335" d="M586.845 161.384l-3.563-3.575-3.6 3.591a3.9 3.9 0 0 0-.693.93 3.78 3.78 0 0 0-.42 1.785v3.748a10.808 10.808 0 0 0 7.2-1.032 10.866 10.866 0 0 0 2.175-1.522l.028-1.19a3.824 3.824 0 0 0-.487-1.9 4.135 4.135 0 0 0-.64-.835z" class="cls-1" data-name="Path 86335" transform="translate(-7.955 -10.417)"/>
        </g>
    </g>
</svg>
