<?xml version="1.0"?>
<svg xmlns="http://www.w3.org/2000/svg" width="53.749" height="83.264" viewBox="0 0 53.749 83.264">
    <defs>
        <style>
            .cls-1{fill:#ff4521}
        </style>
    </defs>
    <path id="Path_86331" d="M149.005 100.315a26.979 26.979 0 0 1-10.411 21.241v8.769h-3.2v-10.381l.658-.479a23.677 23.677 0 1 0-27.847 0l.657.479v10.38a1.943 1.943 0 0 0 1.941 1.942h22.645a5.139 5.139 0 1 1 0 10.277h-22.64a1.941 1.941 0 0 0 0 3.882h22.645a5.139 5.139 0 1 1 0 10.277h-22.645v-3.2h22.645a1.941 1.941 0 1 0 0-3.882h-22.645a5.139 5.139 0 1 1 0-10.278h22.645a1.941 1.941 0 1 0 0-3.882h-22.645a5.146 5.146 0 0 1-5.139-5.14v-8.769a26.874 26.874 0 1 1 43.337-21.241zm-25.639 25.812V110.07H120.9v16.058h-3.2V110.07h-2.412a5.609 5.609 0 1 1 5.61-5.609v2.411h2.47v-2.412a5.608 5.608 0 1 1 5.608 5.609h-2.41v16.058zm-5.666-19.255v-2.411a2.411 2.411 0 1 0-2.412 2.411zm8.865 0h2.41a2.411 2.411 0 1 0-2.41-2.412z" class="cls-1" data-name="Path 86331" transform="translate(-95.257 -73.441)"/>
</svg>
